<?xml version="1.0" standalone="no"?>
<!DOCTYPE svg PUBLIC "-//W3C//DTD SVG 20010904//EN"
 "http://www.w3.org/TR/2001/REC-SVG-20010904/DTD/svg10.dtd">
<svg version="1.0" xmlns="http://www.w3.org/2000/svg"
 width="56.000000pt" height="1024.000000pt" viewBox="0 0 56.000000 1024.000000"
 preserveAspectRatio="xMidYMid meet">

<g transform="translate(0.000000,1024.000000) scale(0.100000,-0.100000)"
fill="#38b6ff" stroke="none">
<path d="M494 10187 c0 -49 -7 -70 -61 -179 -34 -68 -112 -202 -174 -298 -62
-96 -127 -207 -146 -246 -46 -96 -74 -234 -72 -349 1 -51 -5 -129 -15 -180
-34 -182 -30 -352 10 -510 11 -39 15 -99 15 -172 -2 -121 15 -216 50 -284 29
-58 82 -79 207 -83 102 -3 134 -13 152 -46 14 -26 -47 -142 -218 -413 -101
-160 -138 -228 -157 -288 -35 -110 -48 -210 -42 -301 5 -55 1 -104 -13 -176
-38 -195 -36 -356 5 -527 8 -33 17 -125 19 -205 4 -160 19 -228 63 -280 36
-44 62 -52 190 -59 99 -6 115 -10 137 -30 24 -23 25 -25 10 -60 -22 -53 -95
-177 -212 -361 -167 -261 -195 -340 -198 -555 -1 -71 -8 -167 -17 -211 -34
-174 -31 -352 8 -505 8 -31 16 -120 18 -205 3 -121 8 -160 26 -208 38 -106 70
-126 225 -135 115 -7 156 -20 156 -48 0 -26 -89 -186 -206 -369 -177 -278
-205 -353 -210 -559 -1 -66 -10 -163 -20 -215 -26 -138 -24 -335 5 -465 17
-74 22 -129 21 -211 -2 -176 37 -306 103 -341 22 -11 68 -19 145 -23 68 -4
118 -12 125 -19 15 -16 -25 -91 -171 -320 -127 -200 -157 -259 -183 -359 -36
-141 -35 -305 3 -376 10 -18 11 -18 25 8 19 37 52 47 164 51 159 5 203 41 235
199 9 41 15 115 14 176 -1 77 4 131 21 205 28 127 31 315 6 460 -9 55 -22 139
-28 187 -17 133 -54 225 -154 383 -123 194 -216 351 -244 413 -20 43 -22 56
-13 77 16 35 52 46 163 50 159 5 203 41 235 199 9 41 15 115 14 176 -1 78 4
131 21 205 28 125 31 324 6 460 -9 50 -18 138 -21 196 -6 111 -38 244 -78 322
-11 23 -75 127 -142 232 -66 104 -142 234 -170 288 l-49 98 20 27 c30 41 61
52 146 52 151 0 199 28 238 135 18 49 23 87 25 208 2 87 10 171 18 205 40 152
43 313 10 502 -8 46 -17 134 -19 195 -2 81 -10 134 -30 200 -29 101 -49 139
-180 345 -186 292 -236 393 -217 435 21 46 57 59 176 65 128 7 162 21 196 81
33 59 51 169 49 293 -1 74 4 131 14 171 41 154 44 316 11 505 -9 47 -17 135
-19 195 -6 197 -37 278 -213 554 -142 224 -216 364 -208 396 10 38 51 52 162
57 124 6 169 25 202 85 34 62 54 173 52 293 -1 73 4 133 18 197 39 180 38 308
-5 533 -20 108 -30 128 -29 57z m44 -397 c-3 -94 -6 -110 -32 -154 -16 -27
-97 -120 -181 -206 -158 -163 -170 -178 -216 -295 -20 -51 -28 -63 -28 -43 -2
63 52 243 93 312 14 23 79 113 145 201 71 93 141 199 169 254 54 108 56 106
50 -69z m-42 -487 c-13 -110 -12 -109 -218 -183 -58 -21 -102 -45 -132 -72
-53 -46 -59 -36 -16 27 30 43 105 98 241 175 34 19 76 52 93 72 17 21 33 38
35 38 2 0 1 -26 -3 -57z m-438 -557 c36 -77 80 -143 221 -331 118 -159 142
-204 176 -341 34 -132 32 -170 -4 -79 -46 118 -59 135 -200 280 -226 231 -231
240 -231 415 0 66 2 120 4 120 2 0 18 -29 34 -64z m177 -662 c124 -71 161 -98
197 -148 37 -52 37 -77 -1 -37 -31 33 -77 56 -231 115 -52 20 -101 40 -107 44
-13 8 -33 94 -33 140 0 23 2 23 38 -16 20 -23 82 -67 137 -98z m281 -680 c-18
-40 -65 -95 -181 -214 -161 -166 -170 -180 -243 -350 l-11 -25 0 25 c-1 46 39
191 73 263 18 40 93 150 165 247 74 98 150 212 174 260 l42 85 3 -118 c2 -108
0 -124 -22 -173z m-20 -361 c-4 -32 -10 -66 -12 -76 -7 -21 -66 -52 -203 -102
-74 -27 -115 -49 -142 -75 -46 -44 -51 -29 -9 28 35 49 82 85 204 154 50 29
106 69 125 90 20 20 38 37 40 38 2 0 0 -26 -3 -57z m-255 -873 c74 -98 146
-206 164 -245 34 -73 75 -221 74 -264 l0 -26 -11 25 c-82 185 -79 181 -242
349 -199 204 -206 217 -206 391 l0 124 45 -89 c26 -53 99 -162 176 -265z m8
-390 c111 -65 176 -119 200 -167 18 -36 13 -36 -31 1 -23 20 -77 49 -122 66
-152 57 -207 83 -216 99 -5 9 -12 46 -15 81 l-7 65 38 -38 c21 -21 90 -69 153
-107z m267 -666 c-19 -40 -65 -95 -184 -217 -162 -166 -191 -208 -233 -332
-23 -69 -23 -11 0 90 30 128 73 211 186 359 112 147 195 273 227 342 l23 49 3
-118 c2 -108 0 -123 -22 -173z m-21 -366 c-4 -35 -11 -70 -16 -79 -8 -17 -63
-42 -218 -100 -50 -19 -99 -46 -122 -66 -41 -37 -47 -37 -28 0 24 48 89 102
200 167 64 38 129 85 145 104 16 19 33 35 37 35 5 1 6 -27 2 -61z m-365 -693
c19 -27 81 -113 139 -190 121 -162 162 -242 192 -370 27 -117 22 -152 -10 -65
-38 108 -68 148 -226 310 -196 202 -205 218 -205 389 l1 126 37 -75 c21 -41
53 -97 72 -125z m-26 -442 c19 -21 78 -63 131 -93 105 -59 187 -126 210 -171
23 -43 18 -46 -17 -12 -35 34 -86 59 -241 118 -53 20 -101 44 -106 53 -11 21
-25 142 -17 142 3 0 21 -17 40 -37z m434 -624 c-3 -104 -4 -107 -42 -165 -22
-32 -103 -124 -181 -204 -146 -149 -158 -166 -207 -285 l-29 -70 6 57 c6 62
46 201 76 260 10 20 65 99 122 175 139 186 183 252 220 331 30 62 32 65 35 37
2 -16 2 -78 0 -136z m-47 -516 c-6 -36 -16 -70 -23 -75 -7 -4 -60 -26 -118
-48 -163 -63 -177 -70 -215 -108 -44 -44 -47 -22 -5 36 30 41 97 90 237 171
40 23 85 57 100 76 16 19 29 31 31 25 2 -5 -1 -40 -7 -77z m-433 -527 c36 -77
88 -155 193 -293 146 -189 187 -271 219 -436 11 -57 7 -90 -6 -51 -4 10 -24
55 -45 100 -33 71 -54 97 -177 220 -76 77 -157 166 -178 198 l-39 59 -3 134
c-2 73 -2 133 1 133 3 0 19 -29 35 -64z m187 -666 c100 -56 205 -145 205 -175
0 -13 -6 -11 -33 9 -37 28 -100 57 -230 106 -52 20 -94 42 -102 54 -8 12 -17
50 -21 85 l-7 63 44 -43 c25 -24 89 -69 144 -99z m293 -441 c-3 -104 -4 -107
-42 -165 -22 -32 -103 -124 -181 -204 -146 -149 -158 -166 -207 -285 l-29 -70
6 57 c6 62 46 201 76 260 10 20 65 99 122 175 139 186 183 252 220 331 30 62
32 65 35 37 2 -16 2 -78 0 -136z m-47 -516 c-6 -36 -16 -70 -23 -75 -7 -4 -60
-26 -118 -48 -162 -63 -178 -71 -215 -107 -43 -42 -46 -21 -5 35 30 41 97 90
237 171 40 23 85 57 100 76 16 19 29 31 31 25 2 -5 -1 -40 -7 -77z"/>
</g>
</svg>
